<?xml version="1.0" standalone="no"?>
<!DOCTYPE svg PUBLIC "-//W3C//DTD SVG 20010904//EN"
 "http://www.w3.org/TR/2001/REC-SVG-20010904/DTD/svg10.dtd">
<svg version="1.0" xmlns="http://www.w3.org/2000/svg"
 width="469.000000pt" height="533.000000pt" viewBox="0 0 469.000000 533.000000"
 preserveAspectRatio="xMidYMid meet">

<g transform="translate(0.000000,533.000000) scale(0.100000,-0.100000)"
fill="#FFFFFF" stroke="none">
<path d="M2135 5308 c-211 -15 -518 -91 -694 -170 -101 -46 -247 -122 -270
-139 -13 -11 -28 -19 -32 -19 -5 0 -38 -20 -75 -45 -36 -25 -67 -45 -70 -45
-2 0 -12 -7 -21 -15 -10 -9 -58 -49 -108 -89 -49 -40 -126 -108 -169 -152 -44
-43 -112 -119 -152 -169 -40 -49 -80 -98 -89 -107 -8 -10 -15 -20 -15 -22 0
-3 -20 -34 -45 -70 -25 -37 -45 -69 -45 -72 0 -3 -8 -18 -19 -32 -18 -26 -96
-180 -139 -273 -22 -50 -57 -151 -91 -265 -115 -383 -115 -905 0 -1288 52
-173 147 -408 178 -439 6 -6 11 -16 11 -22 0 -32 222 -355 304 -442 184 -194
311 -303 486 -418 48 -32 59 -38 135 -80 583 -325 1304 -381 1935 -153 87 32
262 111 299 135 19 13 38 23 43 23 5 0 21 8 36 19 15 10 73 49 130 86 135 89
214 154 343 284 135 135 191 203 294 356 82 123 205 358 245 470 156 434 188
919 89 1340 -50 215 -86 320 -171 495 -84 175 -178 323 -297 470 -64 79 -256
271 -326 328 -109 88 -282 204 -360 242 -23 10 -44 22 -48 26 -13 13 -223 105
-292 129 -225 75 -392 110 -600 125 -158 11 -228 11 -400 -2z m540 -212 c179
-31 366 -82 485 -133 132 -56 356 -179 410 -225 11 -10 22 -18 25 -18 16 0
176 -140 275 -239 107 -108 259 -296 291 -359 7 -15 18 -34 25 -42 25 -32 164
-316 164 -336 0 -5 11 -38 24 -74 30 -80 58 -189 88 -340 19 -99 23 -147 23
-345 0 -197 -4 -247 -23 -350 -28 -150 -56 -261 -88 -345 -13 -36 -24 -69 -24
-73 0 -8 -18 -49 -78 -177 -25 -54 -148 -264 -170 -291 -43 -53 -72 -89 -97
-124 -47 -64 -243 -256 -330 -323 -44 -34 -86 -67 -94 -73 -25 -22 -235 -145
-291 -171 -133 -62 -169 -77 -240 -101 -120 -40 -256 -73 -380 -93 -155 -25
-514 -26 -640 -2 -47 10 -103 20 -125 23 -63 10 -330 93 -385 120 -173 85
-228 113 -254 130 -17 11 -43 26 -58 34 -67 34 -253 185 -359 291 -100 99
-239 259 -239 275 0 3 -9 16 -21 29 -43 50 -166 274 -222 406 -27 64 -75 214
-96 300 -46 195 -56 287 -56 515 0 216 5 266 46 465 42 205 139 445 257 640
143 235 365 471 612 650 156 114 441 250 616 295 28 7 67 18 85 24 19 6 63 15
99 21 36 5 103 16 150 24 118 21 458 16 595 -8z"/>
<path d="M1353 4128 c-27 -13 -33 -35 -33 -129 0 -62 4 -81 21 -103 l20 -26
978 0 c828 0 980 2 997 14 17 13 19 27 19 120 0 73 -4 109 -13 118 -17 17
-1954 23 -1989 6z"/>
<path d="M1345 3755 c-22 -21 -25 -33 -25 -98 0 -77 2 -69 -126 -435 -33 -94
-29 -129 15 -159 40 -27 78 -29 109 -7 l22 15 0 -600 c0 -532 2 -601 16 -615
14 -14 85 -16 635 -16 l619 0 2 463 3 462 230 0 230 0 3 -462 2 -463 125 0
c117 0 125 1 139 22 14 20 16 94 16 609 l0 587 28 -10 c36 -14 70 -5 105 27
34 33 34 51 -4 155 -17 47 -39 110 -50 140 -10 30 -30 87 -45 125 -17 45 -29
101 -34 155 -7 99 -13 116 -43 124 -12 3 -455 6 -985 6 l-963 0 -24 -25z m323
-312 c-5 -32 -15 -80 -23 -107 -8 -28 -22 -90 -31 -139 -21 -124 -41 -159
-103 -186 -27 -11 -55 -21 -61 -21 -27 0 -73 34 -85 64 -15 35 -15 33 41 286
14 63 28 125 30 138 4 21 8 22 123 22 l118 0 -9 -57z m400 -5 c-4 -35 -14 -97
-22 -138 -8 -41 -17 -104 -20 -140 -8 -84 -38 -132 -101 -155 -43 -17 -47 -17
-85 0 -55 25 -63 56 -50 176 6 52 17 135 25 184 26 152 8 135 144 135 l118 0
-9 -62z m392 -143 c0 -231 -7 -260 -67 -289 -44 -21 -71 -20 -110 4 -58 35
-63 56 -63 285 l0 205 120 0 120 0 0 -205z m409 57 c13 -81 26 -182 29 -224 4
-73 3 -78 -23 -102 -36 -34 -74 -40 -122 -21 -57 23 -84 64 -93 144 -5 36 -18
122 -29 191 -12 69 -21 133 -21 143 0 15 12 17 118 17 l117 0 24 -148z m390
41 c12 -60 31 -148 42 -198 25 -115 19 -157 -26 -185 -40 -25 -55 -25 -108 -1
-51 23 -82 62 -91 116 -7 43 -49 236 -71 323 l-12 52 122 0 122 0 22 -107z
m-914 -943 l0 -315 -382 -3 -383 -2 0 320 0 320 383 -2 382 -3 0 -315z"/>
</g>
</svg>
